<?xml version="1.0" encoding="UTF-8"?>
<svg width="112px" height="18px" viewBox="0 0 112 18" version="1.1" xmlns="http://www.w3.org/2000/svg" xmlns:xlink="http://www.w3.org/1999/xlink">
    <title>画板</title>
    <g id="页面-1" stroke="none" stroke-width="1" fill="none" fill-rule="evenodd">
        <g id="首页" fill-rule="nonzero">
            <g id="编组备份">
                <path d="M25.5363212,17.1775499 L26.7445026,10.1839995 L29.1396692,10.1839995 L31.5984242,17.1775499 L34.6506718,17.1775499 L31.5348357,8.90077927 L36.9398576,0.987587696 L33.9723946,0.987587696 L29.4152193,7.85281606 L27.1684259,7.85281606 L28.3554111,0.987587696 L25.5151251,0.987587696 L22.6960352,17.1775499 L25.5363212,17.1775499 Z M39.1515149,17.1775499 L40.3858887,10.0984515 L45.6639008,10.0984515 L46.6216046,7.81004205 L40.7902525,7.81004205 L41.5776979,3.31877116 L47.3239207,3.31877116 L48.3029069,0.987587696 L39.1302326,0.987587696 L36.2996858,17.1775499 L39.1515149,17.1775499 Z M53.2843963,17.1775499 L55.6868731,3.36154517 L59.5645549,3.36154517 L59.986042,0.987587696 L49.3645658,0.987587696 L48.9430786,3.36154517 L52.8418348,3.36154517 L50.439358,17.1775499 L53.2843963,17.1775499 Z M67.2955645,17.3394495 C70.3732197,17.3394495 71.4132549,16.4386989 71.9863355,13.1573931 L73.1324967,6.63767425 C73.3447488,5.37233409 73.4296496,4.64315501 73.4296496,4.02120815 C73.4296496,1.61920648 72.1561372,0.825688073 69.2058332,0.825688073 L65.6612235,0.825688073 C62.5623431,0.825688073 61.5223079,1.7264387 60.9492273,5.00774455 L59.8242913,11.5060169 C59.590814,12.7928035 59.5059132,13.5219826 59.5059132,14.1439295 C59.5059132,16.5244847 60.7794257,17.3394495 63.7509548,17.3394495 L67.2955645,17.3394495 Z M67.1048355,15.0728548 L65.0483875,15.0728548 C63.267546,15.0728548 62.5467292,14.9003195 62.5467292,13.7141388 C62.5467292,13.1533989 62.7163331,12.053486 62.9495386,10.6732031 L63.7551574,6.07944899 C64.1367663,3.92275694 64.4547737,3.25418241 66.1508132,3.25418241 L68.1860607,3.25418241 C69.9669022,3.25418241 70.7089195,3.42671777 70.7089195,4.6128984 C70.7089195,5.17363833 70.5393156,6.25198435 70.2849096,7.65383418 L69.4792908,12.2475882 C69.0976819,14.3827134 68.800875,15.0728548 67.1048355,15.0728548 Z M82.3396016,17.3394495 C85.4172568,17.3394495 86.4572919,16.4386989 87.0303726,13.1573931 L88.1765338,6.63767425 C88.3887859,5.37233409 88.4736867,4.64315501 88.4736867,4.02120815 C88.4736867,1.61920648 87.2001742,0.825688073 84.2498703,0.825688073 L80.7052606,0.825688073 C77.6063802,0.825688073 76.566345,1.7264387 75.9932644,5.00774455 L74.8683284,11.5060169 C74.6348511,12.7928035 74.5499503,13.5219826 74.5499503,14.1439295 C74.5499503,16.5244847 75.8234627,17.3394495 78.7949919,17.3394495 L82.3396016,17.3394495 Z M81.9888296,15.0728548 L79.9323817,15.0728548 C78.1515401,15.0728548 77.4307233,14.9003195 77.4307233,13.7141388 C77.4307233,13.1533989 77.6003273,12.053486 77.8335327,10.6732031 L78.6391515,6.07944899 C79.0207604,3.92275694 79.3387678,3.25418241 81.0348074,3.25418241 L83.0700548,3.25418241 C84.8508963,3.25418241 85.5929136,3.42671777 85.5929136,4.6128984 C85.5929136,5.17363833 85.4233097,6.25198435 85.1689038,7.65383418 L84.363285,12.2475882 C83.9816761,14.3827134 83.6848692,15.0728548 81.9888296,15.0728548 Z M97.7370151,17.1775499 L98.7164353,14.8035924 L92.3927872,14.8035924 L94.7987543,0.987587696 L91.9456605,0.987587696 L89.1138585,17.1775499 L97.7370151,17.1775499 Z M109.981759,13.9267253 L110.364163,11.7880248 C110.449141,11.3388978 110.640343,10.0770645 110.640343,9.47822839 C110.640343,7.87420307 109.493133,7.61755902 107.687338,7.61755902 L104.968024,7.61755902 C104.373175,7.61755902 104.07575,7.51062399 104.07575,7.14704492 C104.07575,6.95456188 104.139484,6.5268218 104.245707,5.97075969 L104.500642,4.64476542 C104.713089,3.55402821 104.883046,3.34015816 105.860299,3.34015816 L111.022747,3.34015816 L112,0.987587696 L105.711587,0.987587696 C103.056007,0.987587696 102.227466,1.58642381 101.781329,4.15286433 L101.37768,6.41988678 C101.271457,7.0401099 101.186479,7.59617201 101.186479,8.06668611 C101.186479,9.41406737 101.760084,10.0770645 103.4809,10.0770645 L106.646351,10.0770645 C107.411158,10.0770645 107.708583,10.1198385 107.708583,10.5903526 C107.708583,10.8256097 107.666094,11.2961237 107.517381,12.0446689 L107.304935,13.1567931 C107.031858,14.6370622 106.82109,14.8000581 105.460976,14.803534 L99.9967789,14.8035924 L100.421672,17.1775499 L105.371673,17.1775499 C108.239699,17.1775499 109.471888,16.8139708 109.981759,13.9267253 Z" id="KFTOOLS备份" fill="#0050E1"></path>
                <g id="编组备份-3">
                    <polygon id="形状结合" fill="#BCD2FA" points="18.1427461 5.01269446 17.084749 10.6856134 10.5910063 16.2371272 8.30976532 13.4187996"></polygon>
                    <polygon id="形状结合" fill="#0050E1" points="7.29052351 7.48310594 15.7310234 17.9934032 10.1352335 17.9934032 3.96530814 10.3105091"></polygon>
                    <polygon id="路径" fill="#0050E1" points="7.31265919 0.0065163169 3.95930604 17.9870008 1.37558686e-14 18 3.35341952 0.0195155055"></polygon>
                    <polygon id="形状结合" fill="#699EF4" points="19.0778267 0 5.15467512 11.78356 1.92622212 7.67203529 2.99052493 1.96530556 6.25068334 6.11689623 13.4704211 0"></polygon>
                </g>
            </g>
        </g>
    </g>
</svg>